<svg width="156" height="40" viewBox="0 0 156 40" fill="none" xmlns="http://www.w3.org/2000/svg">
<path d="M19.6334 39.1731H24.3621V31.3673C24.1415 31.3502 23.9105 31.327 23.6877 31.2989C23.316 31.2642 22.9443 31.2129 22.5782 31.15C22.3725 31.1214 22.1723 31.0872 21.9716 31.0469C21.8398 31.0182 21.7085 30.9956 21.5767 30.9669C21.3308 30.9212 21.0848 30.8638 20.8394 30.8015C20.0471 30.6135 19.2661 30.3805 18.5002 30.1039C18.2145 30.0013 17.9287 29.8927 17.6426 29.778C17.4596 29.7036 17.2765 29.6236 17.0912 29.5436C16.3418 29.218 15.6107 28.8515 14.9014 28.4457V28.5372C14.2332 28.1804 13.6077 27.7488 13.0369 27.2507C13.0314 27.2507 13.0253 27.2446 13.0198 27.2391C12.5108 26.879 12.0189 26.4958 11.5386 26.0954C11.0699 25.7006 10.6177 25.2892 10.1831 24.8546C9.96254 24.6373 9.74196 24.4135 9.53737 24.1852C9.52518 24.1789 9.51514 24.1691 9.50869 24.157C9.30245 23.9365 9.10834 23.7219 8.91974 23.4953C8.5078 23.026 8.12454 22.5457 7.76168 22.0428C7.56702 21.7797 7.38394 21.5106 7.20141 21.236C7.05803 21.0248 6.92568 20.8185 6.79498 20.6013C6.78947 20.5957 6.78947 20.5902 6.78396 20.5842C6.65199 20.3783 6.52604 20.1667 6.40621 19.9494C6.09188 19.3947 5.79465 18.8228 5.52388 18.2399C5.40973 17.994 5.29502 17.748 5.193 17.496C4.98125 16.9931 4.78658 16.4841 4.61508 15.9696C4.55221 15.7865 4.49542 15.6034 4.43807 15.4181C4.32337 15.0525 4.21748 14.6808 4.12373 14.3086C4.08899 14.1774 4.0548 14.04 4.02613 13.9088C3.96326 13.6629 3.91198 13.4224 3.8607 13.1765C3.80886 12.9079 3.75757 12.6388 3.71731 12.3702C3.66603 12.073 3.62026 11.7697 3.58607 11.4725C3.55188 11.221 3.53093 10.9762 3.50611 10.7291C3.49453 10.626 3.48847 10.5289 3.48296 10.4258C3.47429 10.3711 3.46858 10.3158 3.46585 10.2604C3.45427 10.1231 3.44877 9.98465 3.4427 9.84845C3.41991 9.47677 3.4085 9.0994 3.4085 8.71631C1.92072 10.9232 0.900125 13.4111 0.409447 16.0271C-0.0812285 18.643 -0.0316131 21.3316 0.555271 23.9276C0.560785 23.9387 0.560796 23.9558 0.566311 23.9673C1.37525 27.4888 3.14182 30.7181 5.6709 33.2985C8.19992 35.879 11.3931 37.7101 14.8975 38.5897C16.4458 38.9801 18.0367 39.1761 19.6334 39.1731Z" fill="white"/>
<path d="M24.3623 31.3671V21.7718C24.3691 21.1465 24.2518 20.526 24.0171 19.9464C23.7825 19.3667 23.4352 18.8393 22.9954 18.3947C22.5556 17.9502 22.032 17.5972 21.4549 17.3564C20.8778 17.1155 20.2587 16.9915 19.6333 16.9915C19.008 16.9915 18.3888 17.1155 17.8117 17.3564C17.2346 17.5972 16.711 17.9502 16.2712 18.3947C15.8314 18.8393 15.4842 19.3667 15.2495 19.9464C15.0149 20.526 14.8976 21.1465 14.9043 21.7718V28.4444C17.8033 30.1033 21.0329 31.1014 24.3623 31.3671Z" fill="white"/>
<path d="M13.0236 27.2384C11.9304 26.2931 11.0535 25.1236 10.4526 23.8092C9.8517 22.4948 9.54085 21.0664 9.54112 19.6212C9.54151 18.9512 9.60652 18.2829 9.73529 17.6255C9.86929 16.9731 10.0665 16.3354 10.3242 15.7213C11.088 13.9106 12.3614 12.3609 13.9897 11.2606C13.9897 11.2551 13.9898 11.2551 13.9958 11.2551C14.2589 11.0091 14.5329 10.7687 14.8136 10.5382C14.8179 10.5377 14.8219 10.5355 14.8247 10.5321C17.4389 8.36414 20.543 6.86744 23.8674 6.17222C27.1917 5.47698 30.6355 5.60422 33.8994 6.54291C34.0097 6.56552 34.1201 6.59806 34.2303 6.63445C30.9121 2.89785 26.2872 0.576065 21.3084 0.147336C16.3295 -0.281393 11.3759 1.21558 7.46771 4.32992C5.90252 5.57905 4.53542 7.05791 3.41284 8.71619C3.42158 13.5055 4.94493 18.1693 7.76494 22.0404C9.22779 24.0439 11.0034 25.7989 13.0236 27.2384Z" fill="white"/>
<path d="M39.1796 38.6928V29.8464L39.1773 29.8459L39.1755 29.8445L39.1743 29.8426L39.1741 29.8403H39.168C39.0197 29.7432 38.8707 29.6517 38.7268 29.5486C38.3777 29.328 38.0402 29.0914 37.7088 28.851C36.8777 28.2456 36.0869 27.5867 35.3415 26.8784C35.1987 26.7466 35.0552 26.6093 34.9124 26.472C34.8898 26.4494 34.8667 26.4207 34.8441 26.3976C34.6378 26.1979 34.4437 25.9978 34.2551 25.791C34.0488 25.5737 33.8487 25.3498 33.6485 25.1292C33.4886 24.9406 33.3226 24.7465 33.1627 24.5519C33.0596 24.4261 32.957 24.2943 32.8539 24.1631C32.7678 24.06 32.6884 23.9513 32.6079 23.8482C32.4877 23.6883 32.3675 23.5284 32.2533 23.3679C32.2131 23.3127 32.1734 23.2576 32.1392 23.208C31.9903 23.0023 31.8413 22.7905 31.7046 22.5732C31.6843 22.548 31.6659 22.5212 31.6495 22.4933C31.4951 22.2589 31.3461 22.024 31.2033 21.7841C31.066 21.5723 30.9403 21.3611 30.8262 21.1433C30.7743 21.0634 30.7286 20.9779 30.6828 20.8918C30.5631 20.6862 30.4484 20.4805 30.3519 20.2742C30.3403 20.2516 30.3288 20.2345 30.3177 20.2114C30.1859 19.9715 30.0657 19.7255 29.9516 19.4796C29.9516 19.468 29.9461 19.4625 29.94 19.4509C29.8545 19.2855 29.78 19.12 29.7056 18.9546C29.7227 19.1752 29.7282 19.4007 29.7282 19.6235V29.2354C29.7287 29.8788 29.7939 30.5207 29.9229 31.1511C30.3619 33.2817 31.5226 35.1954 33.209 36.5694C34.8955 37.9434 37.0043 38.6934 39.1796 38.6928Z" fill="white"/>
<path d="M39.1792 29.8462V19.6212C39.1783 15.0692 37.5863 10.6607 34.6788 7.15831C34.536 6.98129 34.387 6.80372 34.2326 6.63222C34.1423 6.602 34.0502 6.57713 33.9569 6.55777C33.944 6.54713 33.9279 6.54112 33.9111 6.54068H33.9001C33.6884 6.47781 33.4711 6.42046 33.2538 6.36311C33.2196 6.35759 33.1794 6.34601 33.1391 6.33498C32.9334 6.28315 32.7216 6.23738 32.5104 6.19161C32.2071 6.12323 31.9038 6.06588 31.595 6.01459C31.4296 5.98591 31.2641 5.9633 31.0987 5.93463C30.8985 5.90595 30.6928 5.88334 30.4871 5.86018C30.298 5.83702 30.1094 5.81993 29.9208 5.80504C29.8238 5.79952 29.7262 5.78794 29.6236 5.78243C29.1317 5.74824 28.6342 5.73059 28.1346 5.73059C28.0083 5.73059 27.8826 5.73059 27.7629 5.73666C27.6527 5.73666 27.5512 5.74217 27.4425 5.74824C27.3833 5.74421 27.3239 5.74603 27.265 5.75375C27.185 5.75375 27.1051 5.75927 27.0251 5.76533C26.8133 5.77085 26.6021 5.78794 26.3904 5.80504C26.3043 5.8111 26.2189 5.81662 26.1328 5.8282C25.8643 5.85081 25.6012 5.87948 25.3321 5.91974C25.1667 5.94235 24.9952 5.96551 24.8292 5.99363C24.7979 5.99386 24.7668 5.99987 24.7377 6.01128C24.6119 6.02838 24.4802 6.05099 24.3517 6.07415C23.8659 6.15962 23.3794 6.26826 22.9052 6.39399C22.7618 6.42873 22.619 6.46844 22.4817 6.50869C21.7111 6.7258 20.9532 6.98537 20.2114 7.28624C20.0002 7.37227 19.7939 7.46381 19.5882 7.56197C19.1305 7.76215 18.6844 7.98494 18.2443 8.22372C18.0613 8.31526 17.8842 8.41783 17.7066 8.52095C17.1976 8.81267 16.7003 9.12755 16.2177 9.46449C15.9773 9.63599 15.7374 9.80749 15.5008 9.98506C15.2775 10.1566 15.0547 10.3336 14.8391 10.5112C14.833 10.5202 14.8251 10.5279 14.8159 10.5338C14.753 10.5795 14.6962 10.6314 14.6334 10.6827C14.4128 10.8657 14.1983 11.0598 13.9871 11.2545C15.651 10.1266 17.6155 9.52482 19.6257 9.52736H19.6313C20.955 9.52736 22.2657 9.78847 23.4884 10.2958C24.7111 10.803 25.8217 11.5466 26.7565 12.4837C28.4872 14.2127 29.5316 16.5109 29.6958 18.9517C29.7702 19.1171 29.8447 19.2826 29.9302 19.448C29.9362 19.4596 29.9417 19.4651 29.9417 19.4767C30.062 19.7226 30.1816 19.9686 30.3079 20.2085C30.3189 20.2316 30.3305 20.2487 30.3421 20.2713C30.4447 20.4776 30.5594 20.6833 30.673 20.889C30.7187 20.975 30.7645 21.0605 30.8163 21.1404C30.936 21.361 31.0617 21.5695 31.1935 21.7812C31.3364 22.0211 31.4853 22.256 31.6397 22.4904C31.6561 22.5184 31.6745 22.5451 31.6948 22.5704C31.8316 22.7821 31.975 22.9933 32.1294 23.2051C32.1636 23.2564 32.2033 23.3082 32.2435 23.365C32.3577 23.5255 32.4779 23.6854 32.5981 23.8453C32.6781 23.9484 32.758 24.0571 32.844 24.1602C32.9411 24.2914 33.0442 24.4232 33.1529 24.549C33.3128 24.7436 33.4788 24.935 33.6387 25.1263C33.8389 25.3469 34.039 25.5725 34.2453 25.7881C34.4339 25.9943 34.628 26.1945 34.8342 26.3947C34.8569 26.4179 34.8801 26.4465 34.9027 26.4691C35.0455 26.6065 35.1888 26.7449 35.3317 26.8756C36.0771 27.5838 36.868 28.2427 37.6991 28.8481C38.0299 29.0941 38.368 29.3284 38.7171 29.5518C38.8599 29.6488 39.0088 29.7459 39.1582 29.8374H39.1643C39.1631 29.8394 39.1628 29.8417 39.1633 29.844C39.1639 29.8462 39.1653 29.8481 39.1673 29.8493C39.1693 29.8504 39.1717 29.8508 39.1739 29.8502C39.1761 29.8497 39.178 29.8482 39.1792 29.8462Z" fill="white"/>
<g style="mix-blend-mode:multiply" opacity="0.1">
<g style="mix-blend-mode:multiply" opacity="0.1">
<path d="M9.54003 19.6221C9.54042 18.9521 9.60544 18.2838 9.73414 17.6264C8.34448 14.1726 7.45223 9.82055 7.46987 4.33081C5.90468 5.57994 4.53761 7.05881 3.41504 8.71708C3.42378 13.5064 4.94712 18.1702 7.76711 22.0413C9.22896 24.0445 11.0034 25.7995 13.0225 27.2393C11.9293 26.294 11.0525 25.1245 10.4515 23.8101C9.85061 22.4957 9.53976 21.0673 9.54003 19.6221Z" fill="white"/>
</g>
</g>
<g style="mix-blend-mode:multiply" opacity="0.16">
<g style="mix-blend-mode:multiply" opacity="0.16">
<path d="M24.3623 31.3672V30.4982C20.8087 29.6717 17.5422 27.906 14.9043 25.3856V28.4451C17.8033 30.1038 21.0329 31.1016 24.3623 31.3672Z" fill="white"/>
</g>
</g>
<g style="mix-blend-mode:multiply" opacity="0.1">
<g style="mix-blend-mode:multiply" opacity="0.1">
<path d="M37.7503 12.2958C36.9999 10.4348 35.9638 8.70222 34.6793 7.16063C34.5365 6.98361 34.3875 6.80604 34.2331 6.63454C34.1428 6.60432 34.0507 6.57945 33.9574 6.56009C33.9445 6.54945 33.9284 6.54344 33.9116 6.543H33.9006C33.6889 6.48013 33.4716 6.42278 33.2543 6.36543C33.2201 6.35991 33.1799 6.34833 33.1396 6.3373C32.9339 6.28547 32.7221 6.2397 32.5109 6.19393C32.2076 6.12555 31.9043 6.06819 31.5955 6.01691C31.4301 5.98823 31.2646 5.96562 31.0992 5.93695C30.899 5.90827 30.6933 5.88566 30.4876 5.8625C30.2985 5.83934 30.1099 5.82225 29.9213 5.80736C29.8243 5.80184 29.7267 5.79026 29.6241 5.78475C29.1322 5.75056 28.6347 5.73291 28.1351 5.73291C28.0088 5.73291 27.8831 5.73291 27.7634 5.73898C27.6531 5.73898 27.5517 5.74449 27.443 5.75056C27.3838 5.74653 27.3244 5.74841 27.2655 5.75607C27.1855 5.75607 27.1055 5.76159 27.0256 5.76765C26.8138 5.77317 26.6026 5.79026 26.3909 5.80736C26.3048 5.81342 26.2194 5.81894 26.1333 5.83052C25.8648 5.85313 25.6017 5.8818 25.3326 5.92206C25.1672 5.94467 24.9957 5.96783 24.8297 5.99595C24.7984 5.99623 24.7673 6.00219 24.7382 6.0136C24.6124 6.0307 24.4807 6.05331 24.3522 6.07647C23.8664 6.16194 23.3799 6.27058 22.9057 6.39631C22.7623 6.43105 22.6195 6.47076 22.4822 6.51101C21.7116 6.72812 20.9537 6.98774 20.2119 7.28856C20.0007 7.37459 19.7944 7.46613 19.5887 7.56429C19.131 7.76447 18.6849 7.98726 18.2448 8.22604C18.0618 8.31758 17.8847 8.42015 17.7071 8.52327C17.1981 8.81499 16.7008 9.12987 16.2182 9.46681C15.9778 9.63831 15.7379 9.80981 15.5013 9.98738C15.278 10.1589 15.0552 10.3359 14.8396 10.5135C14.8335 10.5225 14.8255 10.5302 14.8164 10.5361C14.7535 10.5818 14.6967 10.6337 14.6339 10.685C14.4133 10.8681 14.1988 11.0622 13.9875 11.2568C15.6515 10.1289 17.616 9.52714 19.6262 9.52967H19.6317C23.8862 8.53706 30.068 8.42015 37.4277 12.143C37.5386 12.1871 37.6488 12.239 37.7503 12.2958Z" fill="white"/>
</g>
</g>
<g style="mix-blend-mode:multiply" opacity="0.1">
<g style="mix-blend-mode:multiply" opacity="0.1">
<path d="M39.1794 35.662V29.8464C39.1786 29.8464 39.1778 29.8462 39.1771 29.8459C39.1764 29.8456 39.1758 29.8452 39.1752 29.8445C39.1747 29.844 39.1743 29.8433 39.1741 29.8426C39.1739 29.8418 39.1737 29.8411 39.1739 29.8403H39.1678C39.0194 29.7432 38.8705 29.6517 38.7266 29.5486C38.3775 29.328 38.04 29.0914 37.7086 28.851C36.8774 28.2456 36.0866 27.5867 35.3412 26.8784C35.1984 26.7466 35.055 26.6093 34.9122 26.472C34.8895 26.4494 34.8664 26.4207 34.8438 26.3976C34.6376 26.1979 34.4434 25.9978 34.2548 25.791C34.0486 25.5737 33.8485 25.3498 33.6483 25.1292C33.4884 24.9406 33.3224 24.7465 33.1624 24.5519C33.0593 24.4261 32.9568 24.2943 32.8536 24.1631C32.7676 24.06 32.6881 23.9513 32.6076 23.8482C32.4874 23.6883 32.3672 23.5284 32.2531 23.3679C32.2128 23.3127 32.1731 23.2576 32.1389 23.208C31.9901 23.0023 31.8411 22.7905 31.7043 22.5732C31.6841 22.548 31.6656 22.5212 31.6493 22.4933C31.4948 22.2589 31.3459 22.024 31.2031 21.7841C31.0658 21.5723 30.9401 21.3611 30.8259 21.1433C30.7741 21.0634 30.7283 20.9779 30.6826 20.8918C30.5629 20.6862 30.4482 20.4805 30.3517 20.2742C30.3401 20.2516 30.3285 20.2345 30.3175 20.2114C30.1857 19.9715 30.0655 19.7255 29.9513 19.4796C29.9513 19.468 29.9458 19.4625 29.9397 19.4509C29.8543 19.2855 29.7798 19.12 29.7053 18.9546C29.7224 19.1752 29.7279 19.4007 29.7279 19.6235V22.1547C31.6902 27.1664 34.7801 31.6589 38.758 35.2843C38.8937 35.4116 39.0365 35.5363 39.1794 35.662Z" fill="white"/>
</g>
</g>
<g style="mix-blend-mode:multiply" opacity="0.3">
<g style="mix-blend-mode:multiply" opacity="0.3">
<path d="M39.1793 38.6927V19.6212C39.1784 15.0692 37.5864 10.6607 34.6789 7.15833C35.0732 7.69599 35.4449 8.23918 35.7939 8.80552C36.1492 9.38052 36.4738 9.97394 36.7662 10.5834C37.0176 11.0924 37.2349 11.613 37.4351 12.1391C37.4753 12.2367 37.5095 12.3392 37.5498 12.4424C37.7851 13.0718 37.9876 13.7131 38.1564 14.3636C38.3279 15.0116 38.4652 15.6682 38.5678 16.3307C38.6593 16.9924 38.7331 17.6575 38.7624 18.3209C38.7916 18.9843 38.7856 19.6477 38.7795 20.3337L38.7569 22.3741L38.7282 26.4515V30.529C38.7282 32.1135 38.7378 33.6975 38.7569 35.2809C38.7624 36.2878 38.7795 37.2942 38.7911 38.2945L38.405 38.289L37.633 38.2036L36.8764 38.0519L36.127 37.8407L35.3952 37.5606L34.6921 37.2176L34.0172 36.8172L33.3769 36.3595L32.7764 35.856L32.21 35.3046L31.6895 34.7095L31.2207 34.0693L30.8088 33.3827L30.4542 32.6659L30.157 31.9225L29.9226 31.1505C30.3615 33.2811 31.5222 35.195 33.2086 36.5691C34.895 37.9432 37.0039 38.6933 39.1793 38.6927Z" fill="white"/>
</g>
</g>
<g style="mix-blend-mode:multiply" opacity="0.3">
<g style="mix-blend-mode:multiply" opacity="0.3">
<path d="M19.6332 39.1732H24.3619V32.4653C24.288 33.5803 24.2478 34.7015 24.1965 35.8165C24.1507 36.84 24.1165 37.8569 24.0862 38.8815L20.4719 38.7899C19.8201 38.7784 19.1854 38.7844 18.5562 38.7348C17.9237 38.6902 17.2939 38.6138 16.6691 38.5059C16.0461 38.4082 15.4293 38.2745 14.8217 38.1056C14.2048 37.9427 13.5973 37.746 13.0019 37.5166C12.4129 37.3165 11.8351 37.0363 11.2577 36.7843C10.7029 36.4816 10.1256 36.2185 9.59947 35.8639C9.04802 35.5496 8.54123 35.1718 8.02066 34.8057C7.76368 34.6226 7.52435 34.4114 7.2773 34.2167C7.02545 34.0229 6.78501 33.8149 6.5571 33.5936C6.32825 33.3763 6.08781 33.1646 5.86502 32.9418L5.20326 32.2497C4.98268 32.0291 4.79132 31.7694 4.58011 31.5289C4.37993 31.2835 4.16817 31.0486 3.98509 30.7856L3.4193 30.0135L2.90424 29.2073C2.72171 28.9388 2.57338 28.6559 2.41842 28.3801C2.26346 28.1044 2.0925 27.8254 1.9607 27.5336C1.68498 26.9557 1.40595 26.3756 1.18867 25.7662C0.942724 25.1834 0.777288 24.5712 0.571045 23.9707C1.37999 27.4921 3.14656 30.7214 5.6756 33.3019C8.20468 35.8823 11.3978 37.7134 14.9023 38.5931C16.449 38.9819 18.0382 39.1768 19.6332 39.1732Z" fill="white"/>
</g>
</g>
<path d="M64.0018 30.2704H63.0797L61.5987 28.2166C61.2355 28.5426 60.8489 28.85 60.4391 29.1387C60.0386 29.4182 59.6148 29.665 59.1677 29.8792C58.7207 30.0841 58.2596 30.2471 57.7846 30.3682C57.3189 30.4893 56.8439 30.5498 56.3595 30.5498C55.307 30.5498 54.3151 30.3729 53.3837 30.0189C52.4616 29.665 51.6512 29.1527 50.9527 28.4821C50.2634 27.8021 49.7186 26.9732 49.318 25.9952C48.9175 25.0172 48.7173 23.9042 48.7173 22.6561C48.7173 21.4918 48.9175 20.4254 49.318 19.4567C49.7186 18.4787 50.2634 17.6404 50.9527 16.9419C51.6512 16.2433 52.4616 15.7031 53.3837 15.3212C54.3151 14.93 55.307 14.7344 56.3595 14.7344C56.8439 14.7344 57.3235 14.795 57.7986 14.916C58.2736 15.0371 58.7346 15.2048 59.1817 15.419C59.6288 15.6332 60.0526 15.8847 60.4531 16.1734C60.8629 16.4622 61.2448 16.7742 61.5987 17.1095L63.0797 15.3352H64.0018V30.2704ZM60.1597 22.6561C60.1597 22.1345 60.0572 21.6315 59.8523 21.1472C59.6567 20.6535 59.3866 20.2204 59.042 19.8479C58.6974 19.466 58.2922 19.1633 57.8265 18.9397C57.3701 18.7069 56.8811 18.5905 56.3595 18.5905C55.8379 18.5905 55.3443 18.679 54.8786 18.8559C54.4222 19.0329 54.0217 19.2937 53.6771 19.6383C53.3418 19.9829 53.0763 20.4114 52.8807 20.9237C52.6851 21.4266 52.5873 22.0041 52.5873 22.6561C52.5873 23.3081 52.6851 23.8902 52.8807 24.4025C53.0763 24.9055 53.3418 25.3292 53.6771 25.6739C54.0217 26.0185 54.4222 26.2793 54.8786 26.4563C55.3443 26.6332 55.8379 26.7217 56.3595 26.7217C56.8811 26.7217 57.3701 26.6099 57.8265 26.3864C58.2922 26.1535 58.6974 25.8508 59.042 25.4783C59.3866 25.0964 59.6567 24.6633 59.8523 24.1789C60.0572 23.6853 60.1597 23.1777 60.1597 22.6561Z" fill="white"/>
<path d="M77.9171 28.524C77.6097 28.8034 77.2791 29.0689 76.9251 29.3204C76.5805 29.5625 76.2173 29.7767 75.8354 29.963C75.4535 30.14 75.0577 30.2797 74.6478 30.3822C74.2473 30.4939 73.8375 30.5498 73.4184 30.5498C72.4963 30.5498 71.6301 30.3868 70.8197 30.0608C70.0094 29.7348 69.2969 29.2738 68.6821 28.6777C68.0767 28.0723 67.597 27.3411 67.2431 26.4842C66.8985 25.618 66.7262 24.6493 66.7262 23.5782V15.3072H70.5263V23.5782C70.5263 24.0812 70.6009 24.5329 70.7499 24.9334C70.9082 25.3246 71.1178 25.6552 71.3786 25.9254C71.6394 26.1955 71.9421 26.4004 72.2867 26.5401C72.6406 26.6798 73.0179 26.7497 73.4184 26.7497C73.8096 26.7497 74.1775 26.6612 74.5221 26.4842C74.876 26.2979 75.1834 26.0557 75.4442 25.7577C75.705 25.4596 75.9099 25.1243 76.0589 24.7518C76.208 24.3699 76.2825 23.9787 76.2825 23.5782V15.3072H80.0966V30.2704H79.1745L77.9171 28.524Z" fill="white"/>
<path d="M97.4768 30.2704H96.5547L95.0737 28.2166C94.7105 28.5426 94.324 28.85 93.9141 29.1387C93.5136 29.4182 93.0898 29.665 92.6428 29.8792C92.1957 30.0841 91.7346 30.2471 91.2596 30.3682C90.7939 30.4893 90.3189 30.5498 89.8345 30.5498C88.782 30.5498 87.7901 30.3542 86.8587 29.963C85.9366 29.5625 85.1262 29.013 84.4277 28.3144C83.7384 27.6066 83.1936 26.7729 82.7931 25.8136C82.3925 24.8449 82.1923 23.7924 82.1923 22.6561C82.1923 21.5291 82.3925 20.4812 82.7931 19.5126C83.1936 18.5439 83.7384 17.7056 84.4277 16.9977C85.1262 16.2899 85.9366 15.7357 86.8587 15.3352C87.7901 14.9347 88.782 14.7344 89.8345 14.7344C90.1699 14.7344 90.5145 14.7624 90.8684 14.8182C91.2317 14.8741 91.5809 14.9673 91.9163 15.0977C92.2609 15.2187 92.5822 15.3817 92.8803 15.5867C93.1783 15.7916 93.4298 16.0431 93.6347 16.3411V9.3555H97.4768V30.2704ZM93.6347 22.6561C93.6347 22.1345 93.5323 21.6315 93.3273 21.1472C93.1317 20.6535 92.8616 20.2204 92.517 19.8479C92.1724 19.466 91.7672 19.1633 91.3015 18.9397C90.8451 18.7069 90.3561 18.5905 89.8345 18.5905C89.313 18.5905 88.8193 18.6836 88.3536 18.8699C87.8972 19.0562 87.4967 19.3263 87.1521 19.6802C86.8168 20.0248 86.5513 20.4486 86.3557 20.9516C86.1601 21.4546 86.0623 22.0227 86.0623 22.6561C86.0623 23.2056 86.1601 23.7272 86.3557 24.2209C86.5513 24.7145 86.8168 25.1476 87.1521 25.5202C87.4967 25.8928 87.8972 26.1861 88.3536 26.4004C88.8193 26.6146 89.313 26.7217 89.8345 26.7217C90.3561 26.7217 90.8451 26.6099 91.3015 26.3864C91.7672 26.1535 92.1724 25.8508 92.517 25.4783C92.8616 25.0964 93.1317 24.6633 93.3273 24.1789C93.5323 23.6853 93.6347 23.1777 93.6347 22.6561Z" fill="white"/>
<path d="M104.896 11.2416C104.896 11.5955 104.826 11.9262 104.686 12.2336C104.556 12.5409 104.374 12.811 104.141 13.0439C103.908 13.2674 103.633 13.4491 103.317 13.5888C103.009 13.7192 102.679 13.7844 102.325 13.7844C101.971 13.7844 101.636 13.7192 101.319 13.5888C101.012 13.4491 100.741 13.2674 100.509 13.0439C100.285 12.811 100.103 12.5409 99.9637 12.2336C99.8333 11.9262 99.7681 11.5955 99.7681 11.2416C99.7681 10.897 99.8333 10.571 99.9637 10.2636C100.103 9.94695 100.285 9.67684 100.509 9.4533C100.741 9.22044 101.012 9.03882 101.319 8.90842C101.636 8.76871 101.971 8.69885 102.325 8.69885C102.679 8.69885 103.009 8.76871 103.317 8.90842C103.633 9.03882 103.908 9.22044 104.141 9.4533C104.374 9.67684 104.556 9.94695 104.686 10.2636C104.826 10.571 104.896 10.897 104.896 11.2416ZM104.239 30.2704H100.397V15.3072H104.239V30.2704Z" fill="white"/>
<path d="M114.661 30.2704C113.739 30.2704 112.873 30.0981 112.063 29.7535C111.252 29.3995 110.54 28.9198 109.925 28.3144C109.32 27.6997 108.84 26.9872 108.486 26.1768C108.141 25.3665 107.969 24.5003 107.969 23.5782V19.1353H106.111V15.3352H107.969V9.3555H111.769V15.3352H117.553V19.1353H111.769V23.5782C111.769 23.9787 111.844 24.3559 111.993 24.7099C112.142 25.0545 112.347 25.3572 112.608 25.618C112.868 25.8788 113.176 26.0883 113.53 26.2467C113.884 26.3957 114.261 26.4702 114.661 26.4702H117.553V30.2704H114.661Z" fill="white"/>
<path d="M124.204 11.2416C124.204 11.5955 124.134 11.9262 123.994 12.2336C123.864 12.5409 123.682 12.811 123.449 13.0439C123.216 13.2674 122.942 13.4491 122.625 13.5888C122.318 13.7192 121.987 13.7844 121.633 13.7844C121.279 13.7844 120.944 13.7192 120.627 13.5888C120.32 13.4491 120.05 13.2674 119.817 13.0439C119.593 12.811 119.412 12.5409 119.272 12.2336C119.141 11.9262 119.076 11.5955 119.076 11.2416C119.076 10.897 119.141 10.571 119.272 10.2636C119.412 9.94695 119.593 9.67684 119.817 9.4533C120.05 9.22044 120.32 9.03882 120.627 8.90842C120.944 8.76871 121.279 8.69885 121.633 8.69885C121.987 8.69885 122.318 8.76871 122.625 8.90842C122.942 9.03882 123.216 9.22044 123.449 9.4533C123.682 9.67684 123.864 9.94695 123.994 10.2636C124.134 10.571 124.204 10.897 124.204 11.2416ZM123.547 30.2704H119.705V15.3072H123.547V30.2704Z" fill="white"/>
<path d="M139.544 18.2831L136.75 21.0913C136.61 20.7001 136.419 20.3508 136.177 20.0435C135.935 19.7268 135.66 19.4613 135.353 19.2471C135.055 19.0329 134.729 18.8699 134.375 18.7581C134.021 18.6464 133.658 18.5905 133.285 18.5905C132.763 18.5905 132.27 18.6976 131.804 18.9118C131.348 19.126 130.947 19.4287 130.603 19.8199C130.267 20.2018 130.002 20.6582 129.806 21.1891C129.611 21.72 129.513 22.3068 129.513 22.9495C129.513 23.4711 129.611 23.9601 129.806 24.4165C130.002 24.8729 130.267 25.2734 130.603 25.618C130.947 25.9626 131.348 26.2327 131.804 26.4283C132.27 26.6239 132.763 26.7217 133.285 26.7217C133.658 26.7217 134.016 26.6705 134.361 26.568C134.705 26.4656 135.027 26.3212 135.325 26.1349C135.632 25.9393 135.902 25.7065 136.135 25.4364C136.377 25.1569 136.573 24.8496 136.722 24.5143L139.516 27.3225C139.162 27.8254 138.752 28.2772 138.287 28.6777C137.83 29.0782 137.332 29.4182 136.792 29.6976C136.261 29.977 135.697 30.1866 135.101 30.3263C134.514 30.4753 133.909 30.5498 133.285 30.5498C132.232 30.5498 131.241 30.3542 130.309 29.963C129.387 29.5625 128.577 29.0176 127.878 28.3284C127.189 27.6392 126.644 26.8335 126.244 25.9114C125.843 24.9893 125.643 24.002 125.643 22.9495C125.643 21.8038 125.843 20.7327 126.244 19.7361C126.644 18.7395 127.189 17.8733 127.878 17.1375C128.577 16.3923 129.387 15.8055 130.309 15.3771C131.241 14.9486 132.232 14.7344 133.285 14.7344C133.909 14.7344 134.519 14.8136 135.115 14.9719C135.721 15.1303 136.293 15.3631 136.834 15.6705C137.383 15.9685 137.886 16.3364 138.343 16.7742C138.808 17.212 139.209 17.7149 139.544 18.2831Z" fill="white"/>
<path d="M155.681 30.2704H154.759L153.278 28.2166C152.915 28.5426 152.528 28.85 152.118 29.1387C151.718 29.4182 151.294 29.665 150.847 29.8792C150.4 30.0841 149.939 30.2471 149.464 30.3682C148.998 30.4893 148.523 30.5498 148.039 30.5498C146.986 30.5498 145.994 30.3729 145.063 30.0189C144.141 29.665 143.33 29.1527 142.632 28.4821C141.942 27.8021 141.398 26.9732 140.997 25.9952C140.597 25.0172 140.396 23.9042 140.396 22.6561C140.396 21.4918 140.597 20.4254 140.997 19.4567C141.398 18.4787 141.942 17.6404 142.632 16.9419C143.33 16.2433 144.141 15.7031 145.063 15.3212C145.994 14.93 146.986 14.7344 148.039 14.7344C148.523 14.7344 149.003 14.795 149.478 14.916C149.953 15.0371 150.414 15.2048 150.861 15.419C151.308 15.6332 151.732 15.8847 152.132 16.1734C152.542 16.4622 152.924 16.7742 153.278 17.1095L154.759 15.3352H155.681V30.2704ZM151.839 22.6561C151.839 22.1345 151.736 21.6315 151.531 21.1472C151.336 20.6535 151.066 20.2204 150.721 19.8479C150.376 19.466 149.971 19.1633 149.506 18.9397C149.049 18.7069 148.56 18.5905 148.039 18.5905C147.517 18.5905 147.023 18.679 146.558 18.8559C146.101 19.0329 145.701 19.2937 145.356 19.6383C145.021 19.9829 144.755 20.4114 144.56 20.9237C144.364 21.4266 144.266 22.0041 144.266 22.6561C144.266 23.3081 144.364 23.8902 144.56 24.4025C144.755 24.9055 145.021 25.3292 145.356 25.6739C145.701 26.0185 146.101 26.2793 146.558 26.4563C147.023 26.6332 147.517 26.7217 148.039 26.7217C148.56 26.7217 149.049 26.6099 149.506 26.3864C149.971 26.1535 150.376 25.8508 150.721 25.4783C151.066 25.0964 151.336 24.6633 151.531 24.1789C151.736 23.6853 151.839 23.1777 151.839 22.6561Z" fill="white"/>
</svg>
